<?xml version="1.0" standalone="no"?>
<!DOCTYPE svg PUBLIC "-//W3C//DTD SVG 20010904//EN"
 "http://www.w3.org/TR/2001/REC-SVG-20010904/DTD/svg10.dtd">
<svg version="1.0" xmlns="http://www.w3.org/2000/svg"
 width="600.000000pt" height="600.000000pt" viewBox="0 0 600.000000 600.000000"
 preserveAspectRatio="xMidYMid meet">
<metadata>
Created by potrace 1.11, written by Peter Selinger 2001-2013
</metadata>
<g transform="translate(0.000000,600.000000) scale(0.100000,-0.100000)"
fill="#000000" stroke="none">
<path d="M0 3000 l0 -3000 3000 0 3000 0 0 3000 0 3000 -3000 0 -3000 0 0
-3000z m2363 1480 l-6 -170 633 0 633 0 -6 148 c-3 81 -9 157 -13 170 l-6 22
132 0 133 0 -6 -37 c-4 -21 -9 -98 -13 -172 l-7 -134 299 7 c164 3 323 9 352
12 l52 7 0 -118 0 -118 -47 7 c-27 3 -184 9 -350 13 l-303 6 0 -583 0 -583
333 6 c182 4 356 10 385 13 l52 7 0 -118 0 -117 -32 7 c-18 3 -222 8 -453 11
l-420 4 54 -47 c201 -180 512 -334 854 -423 48 -13 87 -26 87 -29 0 -3 -18
-33 -40 -66 -22 -32 -48 -78 -57 -102 -10 -24 -24 -43 -31 -43 -32 0 -299 107
-437 175 -247 122 -435 257 -625 449 l-85 86 -445 0 -445 -1 -45 -55 c-67 -83
-222 -228 -324 -304 -177 -131 -413 -253 -663 -343 l-72 -26 -26 56 c-14 31
-41 78 -61 105 -19 28 -33 52 -31 54 2 3 44 16 93 29 315 84 607 236 789 409
l80 76 -415 -4 c-228 -2 -427 -7 -442 -11 l-28 -7 0 116 0 116 113 -8 c61 -4
229 -7 372 -7 l260 0 0 575 0 575 -225 0 c-124 0 -267 -4 -317 -8 l-93 -7 0
115 0 115 113 -7 c61 -5 204 -8 317 -8 l205 0 0 45 c0 25 -4 100 -8 168 l-7
122 124 0 124 0 -5 -170z m723 -1861 c-3 -18 -9 -90 -13 -161 l-6 -129 416 3
417 3 0 -105 0 -105 -415 4 -415 3 0 -202 0 -202 658 5 c361 2 669 8 685 12
l27 7 0 -120 0 -121 -67 7 c-88 9 -2662 9 -2730 0 l-53 -7 0 121 0 120 28 -7
c15 -4 300 -9 635 -12 l607 -5 0 202 0 202 -380 -4 -380 -3 0 105 0 105 380
-3 380 -3 0 78 c-1 43 -5 112 -10 153 -4 41 -6 78 -4 82 3 5 59 8 126 8 l121
0 -7 -31z"/>
<path d="M2360 3990 l0 -130 630 0 630 0 0 130 0 130 -630 0 -630 0 0 -130z"/>
<path d="M2360 3545 l0 -125 630 0 630 0 0 125 0 125 -630 0 -630 0 0 -125z"/>
<path d="M2360 3095 l0 -135 630 0 630 0 0 135 0 135 -630 0 -630 0 0 -135z"/>
</g>
</svg>
