<?xml version="1.0" standalone="no"?>
<!DOCTYPE svg PUBLIC "-//W3C//DTD SVG 20010904//EN"
 "http://www.w3.org/TR/2001/REC-SVG-20010904/DTD/svg10.dtd">
<svg version="1.0" xmlns="http://www.w3.org/2000/svg"
 width="600.000000pt" height="600.000000pt" viewBox="0 0 600.000000 600.000000"
 preserveAspectRatio="xMidYMid meet">
<metadata>
Created by potrace 1.11, written by Peter Selinger 2001-2013
</metadata>
<g transform="translate(0.000000,600.000000) scale(0.100000,-0.100000)"
fill="#000000" stroke="none">
<path d="M0 3000 l0 -3000 3000 0 3000 0 0 3000 0 3000 -3000 0 -3000 0 0
-3000z m3390 1732 c-57 -39 -101 -87 -126 -138 -23 -47 -26 -63 -23 -132 4
-70 9 -89 54 -178 45 -91 49 -106 53 -185 9 -192 -85 -360 -257 -453 -86 -48
-162 -125 -199 -203 -24 -51 -27 -70 -27 -158 0 -93 2 -104 32 -157 17 -32 27
-58 22 -58 -17 0 -111 127 -144 195 -46 94 -65 181 -65 296 0 112 24 217 69
307 18 35 27 63 21 67 -12 8 -44 -44 -71 -115 -92 -244 -44 -534 119 -712 l57
-62 -50 28 c-156 89 -303 245 -375 397 -52 113 -73 209 -73 349 0 187 46 345
145 497 177 271 464 430 778 432 83 0 84 0 60 -17z m-1846 -966 c69 -84 175
-114 316 -89 51 9 109 12 145 9 124 -13 280 -117 352 -238 21 -35 40 -86 52
-146 36 -166 108 -270 228 -328 65 -32 180 -44 246 -26 55 15 45 5 -26 -29
-233 -108 -533 -59 -729 120 -68 63 -98 78 -78 41 20 -37 144 -131 225 -170
109 -53 191 -72 305 -73 112 -1 190 14 280 54 l65 29 -40 -36 c-120 -106 -271
-185 -415 -219 -85 -19 -276 -19 -359 0 -156 37 -295 113 -418 229 -268 253
-362 616 -251 974 l20 67 23 -62 c12 -35 39 -83 59 -107z m2524 78 c323 -66
578 -289 693 -604 16 -46 28 -84 26 -86 -1 -2 -25 12 -51 31 -62 44 -107 58
-178 58 -85 -1 -157 -38 -248 -128 -104 -103 -161 -128 -301 -133 -165 -6
-254 25 -366 130 -37 34 -92 73 -131 91 -61 29 -75 32 -167 32 -87 0 -107 -3
-155 -26 -30 -14 -76 -47 -103 -73 -26 -26 -47 -44 -47 -41 0 26 75 132 139
195 154 152 356 217 589 187 38 -5 62 -4 62 1 0 18 -34 25 -146 30 -90 4 -125
1 -194 -17 -175 -44 -322 -144 -417 -284 -29 -43 -53 -74 -53 -69 0 34 58 200
96 272 118 229 312 377 569 435 85 19 289 19 383 -1z m-648 -825 c333 -53 600
-302 691 -644 29 -110 32 -325 6 -439 -51 -214 -160 -387 -337 -528 -46 -37
-85 -67 -86 -65 -1 1 6 27 16 57 56 162 -19 310 -202 394 -142 65 -224 185
-249 362 -13 94 0 169 46 266 19 40 39 104 45 141 28 180 -66 350 -228 413
l-37 14 53 -5 c192 -20 390 -170 487 -368 27 -56 51 -124 60 -172 9 -44 18
-81 21 -84 27 -27 6 121 -30 211 -40 98 -87 169 -166 248 -42 41 -101 90 -132
108 -69 41 -181 81 -228 82 -29 1 -31 3 -15 10 28 12 208 12 285 -1z m-383
-214 c8 -104 -17 -218 -74 -335 -38 -78 -61 -109 -127 -175 -55 -55 -104 -93
-153 -118 -40 -21 -73 -42 -73 -48 0 -16 20 -10 79 21 226 121 372 362 373
614 0 51 -2 103 -6 117 -9 36 33 -58 54 -123 25 -74 50 -216 50 -287 0 -217
-93 -434 -255 -594 -234 -232 -574 -323 -900 -241 -76 19 -267 112 -322 157
l-43 34 78 5 c172 10 263 109 292 318 6 41 22 100 37 130 36 74 125 159 212
203 103 52 161 62 273 49 60 -6 115 -7 153 -1 180 28 324 179 326 342 0 44 2
48 10 28 5 -13 12 -56 16 -96z"/>
<path d="M2850 4139 l0 -55 -47 -24 -48 -23 50 -15 c58 -17 61 -20 70 -80 l7
-45 31 47 31 48 54 -7 55 -7 -36 44 -35 43 18 35 c30 56 26 62 -27 41 l-48
-19 -37 36 -38 36 0 -55z"/>
<path d="M1907 3328 l5 -53 -48 -23 c-53 -26 -49 -36 18 -47 36 -6 37 -9 48
-62 l12 -56 29 47 29 47 50 -7 c28 -4 50 -3 50 1 0 4 -13 23 -30 41 l-29 34
19 46 c11 25 20 47 20 50 0 2 -22 -5 -49 -15 l-48 -20 -34 35 c-18 19 -36 34
-40 34 -4 0 -5 -24 -2 -52z"/>
<path d="M3910 3497 c0 -55 -1 -57 -40 -79 -40 -23 -51 -38 -27 -38 6 0 28 -5
48 -10 34 -10 37 -14 45 -63 l9 -52 30 44 29 43 53 -4 c52 -5 53 -4 38 16 -51
71 -49 63 -30 106 10 22 16 43 13 46 -3 2 -24 -3 -47 -12 l-42 -17 -40 39 -39
38 0 -57z"/>
<path d="M3625 2289 l7 -55 -46 -24 c-50 -27 -49 -31 11 -48 35 -11 42 -17 48
-45 15 -72 15 -73 46 -25 l29 44 50 -6 c28 -4 50 -4 50 -2 0 2 -13 21 -30 42
l-30 38 19 43 c11 24 18 45 16 47 -2 2 -25 -4 -50 -13 l-46 -18 -40 39 -41 39
7 -56z"/>
<path d="M2388 2181 l4 -49 -48 -28 -48 -28 49 -12 c52 -14 65 -26 65 -64 1
-50 15 -53 44 -9 l28 42 56 -7 56 -7 -25 28 c-52 58 -52 58 -29 103 12 23 20
44 17 46 -2 2 -25 -4 -50 -13 l-47 -17 -33 32 c-18 18 -35 32 -39 32 -3 0 -3
-22 0 -49z"/>
</g>
</svg>
