<?xml version="1.0" standalone="no"?>
<!DOCTYPE svg PUBLIC "-//W3C//DTD SVG 20010904//EN"
 "http://www.w3.org/TR/2001/REC-SVG-20010904/DTD/svg10.dtd">
<svg version="1.0" xmlns="http://www.w3.org/2000/svg"
 width="150.000000pt" height="150.000000pt" viewBox="0 0 150.000000 150.000000"
 preserveAspectRatio="xMidYMid meet">
<metadata>
Created by potrace 1.11, written by Peter Selinger 2001-2013
</metadata>
<g transform="translate(0.000000,150.000000) scale(0.100000,-0.100000)"
fill="#000000" stroke="none">
<path d="M0 750 l0 -750 750 0 750 0 0 750 0 750 -750 0 -750 0 0 -750z m590
420 l0 -40 174 0 175 0 3 38 c3 35 5 37 41 40 l37 3 0 -40 0 -41 95 0 95 0 0
-40 0 -40 -95 0 -95 0 0 -165 0 -164 103 -3 102 -3 3 -37 3 -38 -107 0 -108 0
30 -31 c16 -16 65 -48 109 -70 43 -22 81 -42 83 -43 2 -2 -4 -20 -12 -40 l-15
-37 -53 27 c-81 40 -170 107 -203 153 l-30 41 -160 -1 -160 0 -43 -55 -43 -54
101 0 100 0 0 40 0 40 45 0 45 0 0 -40 0 -40 105 0 105 0 0 -40 0 -40 -105 0
-105 0 0 -50 0 -50 180 0 180 0 0 -40 0 -40 -405 0 -405 0 0 40 0 40 180 0
180 0 0 50 0 50 -105 0 -105 0 0 42 0 41 -22 -20 c-24 -22 -138 -93 -150 -93
-7 0 -52 70 -47 73 2 1 34 17 71 36 37 18 87 50 110 72 l43 38 -108 1 -108 0
3 38 3 37 98 3 97 3 0 164 0 165 -90 0 -90 0 0 40 0 40 90 0 90 0 0 33 c0 43
5 47 52 47 38 0 38 0 38 -40z"/>
<path d="M590 1020 l0 -30 175 0 175 0 0 30 0 30 -175 0 -175 0 0 -30z"/>
<path d="M590 885 l0 -35 175 0 175 0 0 35 0 35 -175 0 -175 0 0 -35z"/>
<path d="M590 750 l0 -30 175 0 175 0 0 30 0 30 -175 0 -175 0 0 -30z"/>
</g>
</svg>
